<svg width="148" height="146" viewBox="0 0 148 146" fill="none" xmlns="http://www.w3.org/2000/svg">
<rect width="148" height="146" fill="#E5E5E5"/>
<g id="1_Home_Agency_1440" clip-path="url(#clip0_0_1)">
<rect width="1440" height="17296" transform="translate(-413 -210)" fill="white"/>
<rect id="background" x="-413" y="-210" width="1440" height="880" fill="#28293E"/>
<path id="Star" d="M74.8915 110.547L74 108.793L73.1085 110.547L57.3472 141.563L57.8052 106.775L57.8311 104.807L56.2264 105.946L27.8564 126.085L44.4289 95.4947L45.3662 93.7645L43.416 94.0274L8.93666 98.6753L37.827 79.2902L39.4611 78.1938L37.612 77.5202L4.92211 65.6124L39.5119 61.8738L41.4683 61.6624L40.1441 60.2067L16.7325 34.4711L49.0976 47.2354L50.9282 47.9573L50.4322 46.053L41.6621 12.3853L64.3881 38.7284L65.6736 40.2184L66.1193 38.3017L74 4.41474L81.8807 38.3017L82.3264 40.2184L83.6119 38.7284L106.338 12.3853L97.5678 46.053L97.0718 47.9573L98.9024 47.2354L131.268 34.4711L107.856 60.2067L106.532 61.6624L108.488 61.8738L143.078 65.6124L110.388 77.5202L108.539 78.1938L110.173 79.2902L139.063 98.6753L104.584 94.0274L102.634 93.7645L103.571 95.4947L120.144 126.085L91.7736 105.946L90.1689 104.807L90.1948 106.775L90.6528 141.563L74.8915 110.547Z" stroke="#6A6C8E" stroke-width="2"/>
<path id="We&#226;&#128;&#153;re Help To Build" d="M-268.1 94L-275.66 40.9H-262.448L-257.336 91.66L-259.136 91.552L-250.928 40.9H-235.088L-226.916 91.552L-228.716 91.66L-223.604 40.9H-210.392L-217.952 94H-237.608L-243.656 49.468H-242.36L-248.408 94H-268.1ZM-203.042 78.556V70.528H-179.102L-180.182 72.4C-180.182 72.208 -180.182 72.016 -180.182 71.824C-180.182 71.608 -180.182 71.416 -180.182 71.248C-180.182 70.168 -180.458 69.1 -181.01 68.044C-181.562 66.964 -182.438 66.076 -183.638 65.38C-184.838 64.66 -186.41 64.3 -188.354 64.3C-190.274 64.3 -191.906 64.708 -193.25 65.524C-194.57 66.316 -195.578 67.492 -196.274 69.052C-196.946 70.588 -197.282 72.448 -197.282 74.632C-197.282 76.912 -196.958 78.868 -196.31 80.5C-195.638 82.108 -194.618 83.344 -193.25 84.208C-191.882 85.048 -190.13 85.468 -187.994 85.468C-186.674 85.468 -185.546 85.36 -184.61 85.144C-183.65 84.928 -182.882 84.652 -182.306 84.316C-181.706 83.956 -181.262 83.572 -180.974 83.164C-180.662 82.732 -180.47 82.312 -180.398 81.904H-167.726C-167.87 83.56 -168.446 85.168 -169.454 86.728C-170.462 88.264 -171.854 89.656 -173.63 90.904C-175.382 92.128 -177.518 93.1 -180.038 93.82C-182.534 94.54 -185.366 94.9 -188.534 94.9C-192.878 94.9 -196.658 94.06 -199.874 92.38C-203.09 90.676 -205.586 88.324 -207.362 85.324C-209.114 82.324 -209.99 78.868 -209.99 74.956C-209.99 70.972 -209.09 67.492 -207.29 64.516C-205.49 61.516 -202.982 59.188 -199.766 57.532C-196.526 55.852 -192.782 55.012 -188.534 55.012C-184.142 55.012 -180.35 55.864 -177.158 57.568C-173.966 59.248 -171.506 61.624 -169.778 64.696C-168.05 67.768 -167.186 71.38 -167.186 75.532C-167.186 76.18 -167.198 76.768 -167.222 77.296C-167.246 77.824 -167.282 78.244 -167.33 78.556H-203.042ZM-161.148 51.952C-163.02 51.952 -164.544 51.412 -165.72 50.332C-166.896 49.228 -167.484 47.716 -167.484 45.796C-167.484 43.852 -166.836 42.256 -165.54 41.008C-164.244 39.76 -162.408 39.136 -160.032 39.136C-157.656 39.136 -155.832 39.928 -154.56 41.512C-153.264 43.072 -152.616 45.1 -152.616 47.596C-152.616 49.948 -153.216 52.024 -154.416 53.824C-155.592 55.6 -157.068 57.112 -158.844 58.36C-160.596 59.584 -162.324 60.556 -164.028 61.276L-165.504 58.288C-164.4 57.808 -163.272 57.184 -162.12 56.416C-160.944 55.624 -159.96 54.76 -159.168 53.824C-158.376 52.864 -157.968 51.916 -157.944 50.98C-158.04 51.076 -158.376 51.268 -158.952 51.556C-159.504 51.82 -160.236 51.952 -161.148 51.952ZM-147.746 94V55.768H-134.894V69.448L-137.306 67.72C-136.97 65.824 -136.442 64.096 -135.722 62.536C-135.002 60.952 -134.078 59.608 -132.95 58.504C-131.798 57.376 -130.466 56.512 -128.954 55.912C-127.418 55.312 -125.69 55.012 -123.77 55.012C-122.21 55.012 -121.022 55.12 -120.206 55.336C-119.366 55.552 -118.838 55.72 -118.622 55.84L-120.53 67.18C-120.746 67.06 -121.226 66.88 -121.97 66.64C-122.714 66.376 -123.638 66.244 -124.742 66.244C-126.638 66.244 -128.246 66.556 -129.566 67.18C-130.862 67.78 -131.906 68.596 -132.698 69.628C-133.466 70.66 -134.03 71.812 -134.39 73.084C-134.726 74.356 -134.894 75.628 -134.894 76.9V94H-147.746ZM-110.956 78.556V70.528H-87.0162L-88.0962 72.4C-88.0962 72.208 -88.0962 72.016 -88.0962 71.824C-88.0962 71.608 -88.0962 71.416 -88.0962 71.248C-88.0962 70.168 -88.3722 69.1 -88.9242 68.044C-89.4762 66.964 -90.3522 66.076 -91.5522 65.38C-92.7522 64.66 -94.3242 64.3 -96.2682 64.3C-98.1882 64.3 -99.8202 64.708 -101.164 65.524C-102.484 66.316 -103.492 67.492 -104.188 69.052C-104.86 70.588 -105.196 72.448 -105.196 74.632C-105.196 76.912 -104.872 78.868 -104.224 80.5C-103.552 82.108 -102.532 83.344 -101.164 84.208C-99.7962 85.048 -98.0442 85.468 -95.9082 85.468C-94.5882 85.468 -93.4602 85.36 -92.5242 85.144C-91.5642 84.928 -90.7962 84.652 -90.2202 84.316C-89.6202 83.956 -89.1762 83.572 -88.8882 83.164C-88.5762 82.732 -88.3842 82.312 -88.3122 81.904H-75.6402C-75.7842 83.56 -76.3602 85.168 -77.3682 86.728C-78.3762 88.264 -79.7682 89.656 -81.5442 90.904C-83.2962 92.128 -85.4322 93.1 -87.9522 93.82C-90.4482 94.54 -93.2802 94.9 -96.4482 94.9C-100.792 94.9 -104.572 94.06 -107.788 92.38C-111.004 90.676 -113.5 88.324 -115.276 85.324C-117.028 82.324 -117.904 78.868 -117.904 74.956C-117.904 70.972 -117.004 67.492 -115.204 64.516C-113.404 61.516 -110.896 59.188 -107.68 57.532C-104.44 55.852 -100.696 55.012 -96.4482 55.012C-92.0562 55.012 -88.2642 55.864 -85.0722 57.568C-81.8802 59.248 -79.4202 61.624 -77.6922 64.696C-75.9642 67.768 -75.1002 71.38 -75.1002 75.532C-75.1002 76.18 -75.1122 76.768 -75.1362 77.296C-75.1602 77.824 -75.1962 78.244 -75.2442 78.556H-110.956ZM-11.3594 40.9V94H-24.2474V68.98L-18.4514 72.436H-47.7554L-41.9594 69.16V94H-54.8474V40.9H-41.9594V66.1L-47.7554 62.716H-18.4514L-24.2474 66.064V40.9H-11.3594ZM-0.167124 78.556V70.528H23.7729L22.6929 72.4C22.6929 72.208 22.6929 72.016 22.6929 71.824C22.6929 71.608 22.6929 71.416 22.6929 71.248C22.6929 70.168 22.4169 69.1 21.8649 68.044C21.3129 66.964 20.4369 66.076 19.2369 65.38C18.0369 64.66 16.4649 64.3 14.5209 64.3C12.6009 64.3 10.9689 64.708 9.62488 65.524C8.30488 66.316 7.29688 67.492 6.60088 69.052C5.92888 70.588 5.59288 72.448 5.59288 74.632C5.59288 76.912 5.91688 78.868 6.56488 80.5C7.23688 82.108 8.25688 83.344 9.62488 84.208C10.9929 85.048 12.7449 85.468 14.8809 85.468C16.2009 85.468 17.3289 85.36 18.2649 85.144C19.2249 84.928 19.9929 84.652 20.5689 84.316C21.1689 83.956 21.6129 83.572 21.9009 83.164C22.2129 82.732 22.4049 82.312 22.4769 81.904H35.1489C35.0049 83.56 34.4289 85.168 33.4209 86.728C32.4129 88.264 31.0209 89.656 29.2449 90.904C27.4929 92.128 25.3569 93.1 22.8369 93.82C20.3409 94.54 17.5089 94.9 14.3409 94.9C9.99688 94.9 6.21688 94.06 3.00088 92.38C-0.215124 90.676 -2.71112 88.324 -4.48712 85.324C-6.23912 82.324 -7.11512 78.868 -7.11512 74.956C-7.11512 70.972 -6.21512 67.492 -4.41512 64.516C-2.61512 61.516 -0.107125 59.188 3.10888 57.532C6.34888 55.852 10.0929 55.012 14.3409 55.012C18.7329 55.012 22.5249 55.864 25.7169 57.568C28.9089 59.248 31.3689 61.624 33.0969 64.696C34.8249 67.768 35.6889 71.38 35.6889 75.532C35.6889 76.18 35.6769 76.768 35.6529 77.296C35.6289 77.824 35.5929 78.244 35.5449 78.556H-0.167124ZM52.9376 37.732V94H40.3016V37.732H52.9376ZM59.0663 109.732V55.768H71.9183V109.732H59.0663ZM83.4743 94.9C80.4503 94.9 77.6783 94.072 75.1583 92.416C72.6623 90.736 70.6703 88.492 69.1823 85.684C67.6943 82.852 66.9503 79.696 66.9503 76.216C66.9503 76.12 66.9503 76.024 66.9503 75.928C66.9503 75.808 66.9503 75.688 66.9503 75.568L71.9183 75.46C71.9183 75.532 71.9183 75.616 71.9183 75.712C71.9183 75.784 71.9183 75.844 71.9183 75.892C71.9183 77.572 72.3023 79.024 73.0703 80.248C73.8623 81.448 74.8703 82.372 76.0943 83.02C77.3423 83.644 78.6263 83.956 79.9463 83.956C82.0823 83.956 83.9783 83.212 85.6343 81.724C87.2903 80.236 88.1183 77.884 88.1183 74.668C88.1183 71.452 87.2903 69.136 85.6343 67.72C84.0023 66.28 82.1063 65.56 79.9463 65.56C78.6503 65.56 77.3783 65.872 76.1303 66.496C74.9063 67.096 73.8983 67.984 73.1063 69.16C72.3143 70.312 71.9183 71.74 71.9183 73.444L66.9503 73.12C66.9503 69.616 67.6943 66.508 69.1823 63.796C70.6703 61.084 72.6623 58.948 75.1583 57.388C77.6783 55.804 80.4503 55.012 83.4743 55.012C86.5703 55.012 89.4743 55.768 92.1863 57.28C94.9223 58.792 97.1303 61.012 98.8103 63.94C100.514 66.868 101.366 70.444 101.366 74.668C101.366 79.108 100.538 82.828 98.8823 85.828C97.2263 88.828 95.0423 91.096 92.3303 92.632C89.6183 94.144 86.6663 94.9 83.4743 94.9ZM-237.428 130.62H-255.68L-250.172 124.68V174H-262.988V124.68L-257.408 130.62H-275.696V120.9H-237.428V130.62ZM-218.348 174.864C-222.572 174.864 -226.292 174.024 -229.508 172.344C-232.7 170.64 -235.208 168.288 -237.032 165.288C-238.832 162.288 -239.732 158.832 -239.732 154.92C-239.732 150.984 -238.832 147.528 -237.032 144.552C-235.208 141.552 -232.7 139.212 -229.508 137.532C-226.292 135.852 -222.572 135.012 -218.348 135.012C-214.124 135.012 -210.416 135.852 -207.224 137.532C-204.008 139.212 -201.5 141.552 -199.7 144.552C-197.876 147.528 -196.964 150.984 -196.964 154.92C-196.964 158.832 -197.876 162.288 -199.7 165.288C-201.5 168.288 -204.008 170.64 -207.224 172.344C-210.416 174.024 -214.124 174.864 -218.348 174.864ZM-218.348 164.964C-216.62 164.964 -215.132 164.544 -213.884 163.704C-212.636 162.864 -211.676 161.7 -211.004 160.212C-210.332 158.7 -209.996 156.936 -209.996 154.92C-209.996 152.88 -210.332 151.116 -211.004 149.628C-211.676 148.14 -212.636 146.988 -213.884 146.172C-215.132 145.356 -216.62 144.948 -218.348 144.948C-220.052 144.948 -221.54 145.356 -222.812 146.172C-224.06 146.988 -225.02 148.14 -225.692 149.628C-226.364 151.116 -226.7 152.88 -226.7 154.92C-226.7 156.936 -226.364 158.7 -225.692 160.212C-225.02 161.7 -224.06 162.864 -222.812 163.704C-221.54 164.544 -220.052 164.964 -218.348 164.964ZM-154.572 120.9C-150.732 120.9 -147.6 121.44 -145.176 122.52C-142.752 123.6 -140.976 125.112 -139.848 127.056C-138.696 129 -138.12 131.244 -138.12 133.788C-138.12 136.356 -138.624 138.564 -139.632 140.412C-140.64 142.236 -141.912 143.664 -143.448 144.696C-144.96 145.704 -146.508 146.268 -148.092 146.388C-146.484 146.436 -144.804 146.868 -143.052 147.684C-141.3 148.5 -139.812 149.808 -138.588 151.608C-137.364 153.408 -136.752 155.82 -136.752 158.844C-136.752 161.652 -137.316 164.208 -138.444 166.512C-139.572 168.792 -141.444 170.616 -144.06 171.984C-146.652 173.328 -150.168 174 -154.608 174H-176.676V120.9H-154.572ZM-164.436 145.38L-168.648 141.924H-158.172C-155.676 141.924 -153.852 141.372 -152.7 140.268C-151.524 139.164 -150.936 137.736 -150.936 135.984C-150.936 134.808 -151.188 133.824 -151.692 133.032C-152.172 132.24 -152.928 131.64 -153.96 131.232C-154.992 130.824 -156.3 130.62 -157.884 130.62H-170.232L-164.436 124.68V145.38ZM-157.128 164.244C-154.68 164.244 -152.856 163.668 -151.656 162.516C-150.456 161.364 -149.856 159.876 -149.856 158.052C-149.856 157.092 -150.024 156.216 -150.36 155.424C-150.672 154.632 -151.152 153.948 -151.8 153.372C-152.424 152.796 -153.204 152.352 -154.14 152.04C-155.076 151.728 -156.144 151.572 -157.344 151.572H-168.648L-164.436 148.116V170.184L-170.232 164.244H-157.128ZM-118.495 174.756C-121.207 174.756 -123.439 174.324 -125.191 173.46C-126.919 172.596 -128.275 171.432 -129.259 169.968C-130.219 168.48 -130.903 166.824 -131.311 165C-131.695 163.152 -131.887 161.244 -131.887 159.276C-131.887 158.412 -131.887 157.512 -131.887 156.576C-131.887 155.616 -131.887 154.632 -131.887 153.624V135.768H-119.071V151.5C-119.071 152.316 -119.071 153.096 -119.071 153.84C-119.071 154.56 -119.071 155.232 -119.071 155.856C-119.071 157.32 -118.927 158.676 -118.639 159.924C-118.351 161.172 -117.787 162.18 -116.947 162.948C-116.083 163.692 -114.847 164.064 -113.239 164.064C-111.631 164.064 -110.287 163.62 -109.207 162.732C-108.127 161.82 -107.311 160.668 -106.759 159.276C-106.183 157.86 -105.895 156.384 -105.895 154.848L-102.943 157.728C-102.943 160.248 -103.303 162.552 -104.023 164.64C-104.743 166.704 -105.775 168.492 -107.119 170.004C-108.463 171.516 -110.095 172.692 -112.015 173.532C-113.911 174.348 -116.071 174.756 -118.495 174.756ZM-105.895 174V135.768H-93.0788V174H-105.895ZM-88.2006 174V135.768H-75.4926V174H-88.2006ZM-81.8646 130.404C-83.7846 130.404 -85.4766 129.9 -86.9406 128.892C-88.3806 127.884 -89.1006 126.456 -89.1006 124.608C-89.1006 122.736 -88.3806 121.308 -86.9406 120.324C-85.4766 119.316 -83.7846 118.812 -81.8646 118.812C-79.9206 118.812 -78.2286 119.316 -76.7886 120.324C-75.3486 121.308 -74.6286 122.736 -74.6286 124.608C-74.6286 126.48 -75.3486 127.92 -76.7886 128.928C-78.2286 129.912 -79.9206 130.404 -81.8646 130.404ZM-57.1092 117.732V174H-69.7452V117.732H-57.1092ZM-34.9606 174.9C-38.1526 174.9 -41.1166 174.144 -43.8526 172.632C-46.5646 171.096 -48.7486 168.828 -50.4046 165.828C-52.0606 162.828 -52.8886 159.108 -52.8886 154.668C-52.8886 150.444 -52.0366 146.868 -50.3326 143.94C-48.6286 141.012 -46.4086 138.792 -43.6726 137.28C-40.9366 135.768 -38.0326 135.012 -34.9606 135.012C-31.9126 135.012 -29.1406 135.804 -26.6446 137.388C-24.1486 138.948 -22.1566 141.084 -20.6686 143.796C-19.1806 146.508 -18.4366 149.616 -18.4366 153.12C-18.4366 153.24 -18.4366 153.36 -18.4366 153.48C-18.4366 153.6 -18.4366 153.732 -18.4366 153.876L-23.4046 153.912C-23.4046 153.84 -23.4046 153.768 -23.4046 153.696C-23.4046 153.6 -23.4046 153.516 -23.4046 153.444C-23.4046 151.74 -23.8126 150.312 -24.6286 149.16C-25.4206 147.984 -26.4286 147.096 -27.6526 146.496C-28.8766 145.872 -30.1486 145.56 -31.4686 145.56C-33.6046 145.56 -35.5006 146.28 -37.1566 147.72C-38.8126 149.136 -39.6406 151.452 -39.6406 154.668C-39.6406 157.884 -38.8126 160.236 -37.1566 161.724C-35.5006 163.212 -33.6046 163.956 -31.4686 163.956C-30.1006 163.956 -28.8046 163.632 -27.5806 162.984C-26.3566 162.336 -25.3606 161.412 -24.5926 160.212C-23.8006 158.988 -23.4046 157.536 -23.4046 155.856L-18.4366 156.144C-18.4366 159.624 -19.1806 162.78 -20.6686 165.612C-22.1326 168.444 -24.1126 170.7 -26.6086 172.38C-29.1046 174.06 -31.8886 174.9 -34.9606 174.9ZM-23.4046 174V117.732H-10.5526V174H-23.4046ZM52.8698 120.9L37.2818 155.748V174H24.4658V155.748L8.98581 120.9H22.5578L33.4298 149.592H28.3538L39.2258 120.9H52.8698ZM70.0736 174.864C65.8496 174.864 62.1296 174.024 58.9136 172.344C55.7216 170.64 53.2136 168.288 51.3896 165.288C49.5896 162.288 48.6896 158.832 48.6896 154.92C48.6896 150.984 49.5896 147.528 51.3896 144.552C53.2136 141.552 55.7216 139.212 58.9136 137.532C62.1296 135.852 65.8496 135.012 70.0736 135.012C74.2976 135.012 78.0056 135.852 81.1976 137.532C84.4136 139.212 86.9216 141.552 88.7216 144.552C90.5456 147.528 91.4576 150.984 91.4576 154.92C91.4576 158.832 90.5456 162.288 88.7216 165.288C86.9216 168.288 84.4136 170.64 81.1976 172.344C78.0056 174.024 74.2976 174.864 70.0736 174.864ZM70.0736 164.964C71.8016 164.964 73.2896 164.544 74.5376 163.704C75.7856 162.864 76.7456 161.7 77.4176 160.212C78.0896 158.7 78.4256 156.936 78.4256 154.92C78.4256 152.88 78.0896 151.116 77.4176 149.628C76.7456 148.14 75.7856 146.988 74.5376 146.172C73.2896 145.356 71.8016 144.948 70.0736 144.948C68.3696 144.948 66.8816 145.356 65.6096 146.172C64.3616 146.988 63.4016 148.14 62.7296 149.628C62.0576 151.116 61.7216 152.88 61.7216 154.92C61.7216 156.936 62.0576 158.7 62.7296 160.212C63.4016 161.7 64.3616 162.864 65.6096 163.704C66.8816 164.544 68.3696 164.964 70.0736 164.964ZM108.958 174.756C106.246 174.756 104.014 174.324 102.262 173.46C100.534 172.596 99.1783 171.432 98.1943 169.968C97.2343 168.48 96.5503 166.824 96.1423 165C95.7583 163.152 95.5663 161.244 95.5663 159.276C95.5663 158.412 95.5663 157.512 95.5663 156.576C95.5663 155.616 95.5663 154.632 95.5663 153.624V135.768H108.382V151.5C108.382 152.316 108.382 153.096 108.382 153.84C108.382 154.56 108.382 155.232 108.382 155.856C108.382 157.32 108.526 158.676 108.814 159.924C109.102 161.172 109.666 162.18 110.506 162.948C111.37 163.692 112.606 164.064 114.214 164.064C115.822 164.064 117.166 163.62 118.246 162.732C119.326 161.82 120.142 160.668 120.694 159.276C121.27 157.86 121.558 156.384 121.558 154.848L124.51 157.728C124.51 160.248 124.15 162.552 123.43 164.64C122.71 166.704 121.678 168.492 120.334 170.004C118.99 171.516 117.358 172.692 115.438 173.532C113.542 174.348 111.382 174.756 108.958 174.756ZM121.558 174V135.768H134.374V174H121.558ZM139.973 174V135.768H152.825V149.448L150.413 147.72C150.749 145.824 151.277 144.096 151.997 142.536C152.717 140.952 153.641 139.608 154.769 138.504C155.921 137.376 157.253 136.512 158.765 135.912C160.301 135.312 162.029 135.012 163.949 135.012C165.509 135.012 166.697 135.12 167.513 135.336C168.353 135.552 168.881 135.72 169.097 135.84L167.189 147.18C166.973 147.06 166.493 146.88 165.749 146.64C165.005 146.376 164.081 146.244 162.977 146.244C161.081 146.244 159.473 146.556 158.153 147.18C156.857 147.78 155.813 148.596 155.021 149.628C154.253 150.66 153.689 151.812 153.329 153.084C152.993 154.356 152.825 155.628 152.825 156.9V174H139.973ZM-273.824 254V200.9H-255.356C-251.804 200.9 -248.564 201.548 -245.636 202.844C-242.684 204.14 -240.14 205.976 -238.004 208.352C-235.868 210.704 -234.224 213.5 -233.072 216.74C-231.92 219.956 -231.344 223.496 -231.344 227.36C-231.344 231.2 -231.92 234.752 -233.072 238.016C-234.224 241.256 -235.868 244.076 -238.004 246.476C-240.14 248.852 -242.684 250.7 -245.636 252.02C-248.564 253.34 -251.804 254 -255.356 254H-273.824ZM-260.936 250.22L-266.732 244.28H-257.084C-254.732 244.28 -252.608 243.596 -250.712 242.228C-248.792 240.86 -247.256 238.916 -246.104 236.396C-244.952 233.852 -244.376 230.84 -244.376 227.36C-244.376 223.856 -244.952 220.856 -246.104 218.36C-247.256 215.864 -248.792 213.956 -250.712 212.636C-252.608 211.292 -254.732 210.62 -257.084 210.62H-266.732L-260.936 204.68V250.22ZM-226.645 254V215.768H-213.793V229.448L-216.205 227.72C-215.869 225.824 -215.341 224.096 -214.621 222.536C-213.901 220.952 -212.977 219.608 -211.849 218.504C-210.697 217.376 -209.365 216.512 -207.853 215.912C-206.317 215.312 -204.589 215.012 -202.669 215.012C-201.109 215.012 -199.921 215.12 -199.105 215.336C-198.265 215.552 -197.737 215.72 -197.521 215.84L-199.429 227.18C-199.645 227.06 -200.125 226.88 -200.869 226.64C-201.613 226.376 -202.537 226.244 -203.641 226.244C-205.537 226.244 -207.145 226.556 -208.465 227.18C-209.761 227.78 -210.805 228.596 -211.597 229.628C-212.365 230.66 -212.929 231.812 -213.289 233.084C-213.625 234.356 -213.793 235.628 -213.793 236.9V254H-226.645ZM-189.855 238.556V230.528H-165.915L-166.995 232.4C-166.995 232.208 -166.995 232.016 -166.995 231.824C-166.995 231.608 -166.995 231.416 -166.995 231.248C-166.995 230.168 -167.271 229.1 -167.823 228.044C-168.375 226.964 -169.251 226.076 -170.451 225.38C-171.651 224.66 -173.223 224.3 -175.167 224.3C-177.087 224.3 -178.719 224.708 -180.063 225.524C-181.383 226.316 -182.391 227.492 -183.087 229.052C-183.759 230.588 -184.095 232.448 -184.095 234.632C-184.095 236.912 -183.771 238.868 -183.123 240.5C-182.451 242.108 -181.431 243.344 -180.063 244.208C-178.695 245.048 -176.943 245.468 -174.807 245.468C-173.487 245.468 -172.359 245.36 -171.423 245.144C-170.463 244.928 -169.695 244.652 -169.119 244.316C-168.519 243.956 -168.075 243.572 -167.787 243.164C-167.475 242.732 -167.283 242.312 -167.211 241.904H-154.539C-154.683 243.56 -155.259 245.168 -156.267 246.728C-157.275 248.264 -158.667 249.656 -160.443 250.904C-162.195 252.128 -164.331 253.1 -166.851 253.82C-169.347 254.54 -172.179 254.9 -175.347 254.9C-179.691 254.9 -183.471 254.06 -186.687 252.38C-189.903 250.676 -192.399 248.324 -194.175 245.324C-195.927 242.324 -196.803 238.868 -196.803 234.956C-196.803 230.972 -195.903 227.492 -194.103 224.516C-192.303 221.516 -189.795 219.188 -186.579 217.532C-183.339 215.852 -179.595 215.012 -175.347 215.012C-170.955 215.012 -167.163 215.864 -163.971 217.568C-160.779 219.248 -158.319 221.624 -156.591 224.696C-154.863 227.768 -153.999 231.38 -153.999 235.532C-153.999 236.18 -154.011 236.768 -154.035 237.296C-154.059 237.824 -154.095 238.244 -154.143 238.556H-189.855ZM-137.11 254.828C-139.87 254.828 -142.33 254.396 -144.49 253.532C-146.65 252.644 -148.354 251.36 -149.602 249.68C-150.85 248 -151.474 245.96 -151.474 243.56C-151.474 240.8 -150.694 238.568 -149.134 236.864C-147.574 235.136 -145.546 233.828 -143.05 232.94C-140.554 232.028 -137.914 231.44 -135.13 231.176C-131.098 230.792 -128.35 230.456 -126.886 230.168C-125.398 229.856 -124.654 229.328 -124.654 228.584C-124.654 228.56 -124.654 228.548 -124.654 228.548C-124.654 228.524 -124.654 228.512 -124.654 228.512C-124.654 227.36 -125.266 226.424 -126.49 225.704C-127.69 224.984 -129.346 224.624 -131.458 224.624C-133.69 224.624 -135.382 225.032 -136.534 225.848C-137.662 226.64 -138.226 227.852 -138.226 229.484H-150.898C-150.898 226.34 -150.034 223.7 -148.306 221.564C-146.554 219.404 -144.202 217.772 -141.25 216.668C-138.298 215.564 -134.998 215.012 -131.35 215.012C-127.894 215.012 -124.69 215.528 -121.738 216.56C-118.762 217.592 -116.362 219.164 -114.538 221.276C-112.69 223.388 -111.766 226.076 -111.766 229.34C-111.766 229.844 -111.766 230.348 -111.766 230.852C-111.766 231.356 -111.766 231.86 -111.766 232.364V245.036C-111.766 246.044 -111.742 247.028 -111.694 247.988C-111.646 248.924 -111.514 249.788 -111.298 250.58C-111.034 251.444 -110.71 252.176 -110.326 252.776C-109.918 253.376 -109.594 253.784 -109.354 254H-121.918C-122.11 253.808 -122.398 253.436 -122.782 252.884C-123.142 252.332 -123.454 251.696 -123.718 250.976C-124.03 250.016 -124.258 249.092 -124.402 248.204C-124.546 247.292 -124.618 246.212 -124.618 244.964L-121.882 246.836C-122.554 248.492 -123.658 249.92 -125.194 251.12C-126.706 252.32 -128.494 253.244 -130.558 253.892C-132.622 254.516 -134.806 254.828 -137.11 254.828ZM-133.438 245.504C-131.95 245.504 -130.522 245.204 -129.154 244.604C-127.786 244.004 -126.658 243.044 -125.77 241.724C-124.882 240.404 -124.438 238.64 -124.438 236.432V233.804L-121.198 236.684C-122.782 237.236 -124.582 237.704 -126.598 238.088C-128.614 238.448 -130.582 238.724 -132.502 238.916C-134.542 239.132 -136.066 239.48 -137.074 239.96C-138.082 240.44 -138.586 241.232 -138.586 242.336C-138.586 243.392 -138.154 244.184 -137.29 244.712C-136.402 245.24 -135.118 245.504 -133.438 245.504ZM-82.3171 254V239.888C-82.3171 238.52 -82.3171 237.32 -82.3171 236.288C-82.3171 235.232 -82.3171 234.368 -82.3171 233.696C-82.3171 232.712 -82.3651 231.764 -82.4611 230.852C-82.5571 229.916 -82.7731 229.064 -83.1091 228.296C-83.4451 227.528 -83.9611 226.916 -84.6571 226.46C-85.3291 226.004 -86.2531 225.776 -87.4291 225.776C-88.4611 225.776 -89.3611 226.004 -90.1291 226.46C-90.8731 226.916 -91.4971 227.552 -92.0011 228.368C-92.5051 229.16 -92.8771 230.108 -93.1171 231.212C-93.3571 232.292 -93.4771 233.456 -93.4771 234.704L-96.3931 231.86C-96.3931 228.476 -95.8171 225.524 -94.6651 223.004C-93.4891 220.484 -91.8211 218.528 -89.6611 217.136C-87.4771 215.72 -84.8851 215.012 -81.8851 215.012C-78.6211 215.012 -76.1011 215.72 -74.3251 217.136C-72.5491 218.528 -71.3131 220.376 -70.6171 222.68C-69.9211 224.984 -69.5731 227.504 -69.5731 230.24C-69.5731 231.296 -69.5731 232.748 -69.5731 234.596C-69.5731 236.42 -69.5731 238.64 -69.5731 241.256V254H-82.3171ZM-106.293 254V215.768H-93.4771V254H-106.293ZM-58.4851 254V239.924C-58.4851 238.532 -58.4851 237.32 -58.4851 236.288C-58.4851 235.232 -58.4851 234.356 -58.4851 233.66C-58.4851 232.58 -58.5451 231.572 -58.6651 230.636C-58.7851 229.676 -59.0131 228.836 -59.3491 228.116C-59.6851 227.372 -60.2011 226.796 -60.8971 226.388C-61.5691 225.98 -62.4691 225.776 -63.5971 225.776C-64.6291 225.776 -65.5291 226.004 -66.2971 226.46C-67.0411 226.916 -67.6531 227.552 -68.1331 228.368C-68.6131 229.16 -68.9731 230.096 -69.2131 231.176C-69.4531 232.256 -69.5731 233.396 -69.5731 234.596L-72.4891 231.752C-72.4891 228.392 -71.9131 225.464 -70.7611 222.968C-69.6091 220.472 -67.9531 218.528 -65.7931 217.136C-63.6331 215.72 -61.0411 215.012 -58.0171 215.012C-54.7771 215.012 -52.2691 215.708 -50.4931 217.1C-48.6931 218.492 -47.4331 220.328 -46.7131 222.608C-45.9931 224.888 -45.6331 227.396 -45.6331 230.132C-45.6331 231.236 -45.6331 232.676 -45.6331 234.452C-45.6331 236.228 -45.6331 238.424 -45.6331 241.04V254H-58.4851ZM-10.9516 254H-23.8396V200.9H-4.57962C-0.523623 200.9 2.96838 201.692 5.89638 203.276C8.84838 204.86 11.1164 207.02 12.7004 209.756C14.3084 212.468 15.1124 215.528 15.1124 218.936C15.1124 222.344 14.3084 225.452 12.7004 228.26C11.0924 231.068 8.81238 233.312 5.86038 234.992C2.93238 236.672 -0.547623 237.512 -4.57962 237.512H-10.9516V254ZM-10.9516 233.696L-16.7476 227.828H-5.91162C-4.37562 227.828 -3.00762 227.492 -1.80762 226.82C-0.583623 226.124 0.376376 225.116 1.07238 223.796C1.79238 222.476 2.15238 220.856 2.15238 218.936C2.15238 216.992 1.80438 215.408 1.10838 214.184C0.412376 212.96 -0.547624 212.06 -1.77162 211.484C-2.97162 210.908 -4.35162 210.62 -5.91162 210.62H-16.7476L-10.9516 204.68V233.696ZM19.5429 254V215.768H32.3949V229.448L29.9829 227.72C30.3189 225.824 30.8469 224.096 31.5669 222.536C32.2869 220.952 33.2109 219.608 34.3389 218.504C35.4909 217.376 36.8229 216.512 38.3349 215.912C39.8709 215.312 41.5989 215.012 43.5189 215.012C45.0789 215.012 46.2669 215.12 47.0829 215.336C47.9229 215.552 48.4509 215.72 48.6669 215.84L46.7589 227.18C46.5429 227.06 46.0629 226.88 45.3189 226.64C44.5749 226.376 43.6509 226.244 42.5469 226.244C40.6509 226.244 39.0429 226.556 37.7229 227.18C36.4269 227.78 35.3829 228.596 34.5909 229.628C33.8229 230.66 33.2589 231.812 32.8989 233.084C32.5629 234.356 32.3949 235.628 32.3949 236.9V254H19.5429ZM70.7689 254.864C66.5449 254.864 62.8249 254.024 59.6089 252.344C56.4169 250.64 53.9089 248.288 52.0849 245.288C50.2849 242.288 49.3849 238.832 49.3849 234.92C49.3849 230.984 50.2849 227.528 52.0849 224.552C53.9089 221.552 56.4169 219.212 59.6089 217.532C62.8249 215.852 66.5449 215.012 70.7689 215.012C74.9929 215.012 78.7009 215.852 81.8929 217.532C85.1089 219.212 87.6169 221.552 89.4169 224.552C91.2409 227.528 92.1529 230.984 92.1529 234.92C92.1529 238.832 91.2409 242.288 89.4169 245.288C87.6169 248.288 85.1089 250.64 81.8929 252.344C78.7009 254.024 74.9929 254.864 70.7689 254.864ZM70.7689 244.964C72.4969 244.964 73.9849 244.544 75.2329 243.704C76.4809 242.864 77.4409 241.7 78.1129 240.212C78.7849 238.7 79.1209 236.936 79.1209 234.92C79.1209 232.88 78.7849 231.116 78.1129 229.628C77.4409 228.14 76.4809 226.988 75.2329 226.172C73.9849 225.356 72.4969 224.948 70.7689 224.948C69.0649 224.948 67.5769 225.356 66.3049 226.172C65.0569 226.988 64.0969 228.14 63.4249 229.628C62.7529 231.116 62.4169 232.88 62.4169 234.92C62.4169 236.936 62.7529 238.7 63.4249 240.212C64.0969 241.7 65.0569 242.864 66.3049 243.704C67.5769 244.544 69.0649 244.964 70.7689 244.964ZM90.9696 270.56C90.2496 270.56 89.5536 270.536 88.8816 270.488C88.1856 270.464 87.6096 270.44 87.1536 270.416V260.984C87.5856 261.056 88.1496 261.116 88.8456 261.164C89.5176 261.236 90.2256 261.272 90.9696 261.272C91.9776 261.272 92.8056 261.14 93.4536 260.876C94.1016 260.612 94.5936 260.264 94.9296 259.832C95.2896 259.4 95.5416 258.932 95.6856 258.428C95.8296 257.948 95.9016 257.468 95.9016 256.988V215.768H108.682V257.276C108.682 258.86 108.466 260.432 108.034 261.992C107.626 263.552 106.81 264.98 105.586 266.276C104.386 267.572 102.61 268.604 100.258 269.372C97.9056 270.164 94.8096 270.56 90.9696 270.56ZM102.418 210.404C100.474 210.404 98.7816 209.9 97.3416 208.892C95.9016 207.884 95.1816 206.456 95.1816 204.608C95.1816 202.736 95.9016 201.308 97.3416 200.324C98.7816 199.316 100.474 198.812 102.418 198.812C104.338 198.812 106.018 199.316 107.458 200.324C108.898 201.308 109.618 202.736 109.618 204.608C109.618 206.456 108.898 207.884 107.458 208.892C106.018 209.9 104.338 210.404 102.418 210.404ZM119.13 238.556V230.528H143.07L141.99 232.4C141.99 232.208 141.99 232.016 141.99 231.824C141.99 231.608 141.99 231.416 141.99 231.248C141.99 230.168 141.714 229.1 141.162 228.044C140.61 226.964 139.734 226.076 138.534 225.38C137.334 224.66 135.762 224.3 133.818 224.3C131.898 224.3 130.266 224.708 128.922 225.524C127.602 226.316 126.594 227.492 125.898 229.052C125.226 230.588 124.89 232.448 124.89 234.632C124.89 236.912 125.214 238.868 125.862 240.5C126.534 242.108 127.554 243.344 128.922 244.208C130.29 245.048 132.042 245.468 134.178 245.468C135.498 245.468 136.626 245.36 137.562 245.144C138.522 244.928 139.29 244.652 139.866 244.316C140.466 243.956 140.91 243.572 141.198 243.164C141.51 242.732 141.702 242.312 141.774 241.904H154.446C154.302 243.56 153.726 245.168 152.718 246.728C151.71 248.264 150.318 249.656 148.542 250.904C146.79 252.128 144.654 253.1 142.134 253.82C139.638 254.54 136.806 254.9 133.638 254.9C129.294 254.9 125.514 254.06 122.298 252.38C119.082 250.676 116.586 248.324 114.81 245.324C113.058 242.324 112.182 238.868 112.182 234.956C112.182 230.972 113.082 227.492 114.882 224.516C116.682 221.516 119.19 219.188 122.406 217.532C125.646 215.852 129.39 215.012 133.638 215.012C138.03 215.012 141.822 215.864 145.014 217.568C148.206 219.248 150.666 221.624 152.394 224.696C154.122 227.768 154.986 231.38 154.986 235.532C154.986 236.18 154.974 236.768 154.95 237.296C154.926 237.824 154.89 238.244 154.842 238.556H119.13ZM178.679 254.9C174.287 254.9 170.471 254.036 167.231 252.308C164.015 250.58 161.531 248.204 159.779 245.18C158.027 242.156 157.151 238.676 157.151 234.74C157.151 230.78 158.027 227.324 159.779 224.372C161.531 221.42 164.015 219.128 167.231 217.496C170.471 215.84 174.287 215.012 178.679 215.012C181.943 215.012 184.823 215.48 187.319 216.416C189.815 217.352 191.891 218.6 193.547 220.16C195.227 221.696 196.499 223.388 197.363 225.236C198.227 227.06 198.659 228.872 198.659 230.672C198.659 230.72 198.659 230.78 198.659 230.852C198.659 230.9 198.659 230.948 198.659 230.996H185.951C185.951 230.852 185.939 230.72 185.915 230.6C185.915 230.48 185.891 230.348 185.843 230.204C185.651 229.388 185.291 228.596 184.763 227.828C184.235 227.036 183.467 226.388 182.459 225.884C181.475 225.356 180.179 225.092 178.571 225.092C176.915 225.092 175.451 225.464 174.179 226.208C172.931 226.952 171.947 228.044 171.227 229.484C170.531 230.9 170.183 232.652 170.183 234.74C170.183 236.756 170.531 238.532 171.227 240.068C171.947 241.58 172.931 242.756 174.179 243.596C175.451 244.412 176.915 244.82 178.571 244.82C180.227 244.82 181.571 244.568 182.603 244.064C183.659 243.536 184.451 242.84 184.979 241.976C185.507 241.088 185.819 240.104 185.915 239.024H198.659C198.659 240.848 198.227 242.696 197.363 244.568C196.523 246.416 195.263 248.12 193.583 249.68C191.927 251.24 189.851 252.5 187.355 253.46C184.859 254.42 181.967 254.9 178.679 254.9ZM222.637 254.864C221.077 254.864 219.445 254.732 217.741 254.468C216.037 254.228 214.453 253.724 212.989 252.956C211.525 252.188 210.337 251.036 209.425 249.5C208.513 247.964 208.057 245.924 208.057 243.38C208.057 242.828 208.057 242.288 208.057 241.76C208.057 241.208 208.057 240.656 208.057 240.104V225.488H199.381V215.768H200.713C202.369 215.768 203.689 215.696 204.673 215.552C205.657 215.408 206.389 215.048 206.869 214.472C207.349 213.896 207.661 213.008 207.805 211.808C207.973 210.584 208.057 208.892 208.057 206.732V203.204H220.945V215.768H231.745V225.488H220.945V237.62C220.945 238.028 220.945 238.424 220.945 238.808C220.945 239.168 220.945 239.54 220.945 239.924C220.945 241.436 221.125 242.696 221.485 243.704C221.845 244.712 222.781 245.216 224.293 245.216C225.133 245.216 225.925 245.132 226.669 244.964C227.413 244.796 227.965 244.64 228.325 244.496V253.928C227.797 254.144 227.041 254.348 226.057 254.54C225.073 254.756 223.933 254.864 222.637 254.864Z" fill="white"/>
</g>
<defs>
<clipPath id="clip0_0_1">
<rect width="1440" height="17296" fill="white" transform="translate(-413 -210)"/>
</clipPath>
</defs>
</svg>
